<svg xmlns="http://www.w3.org/2000/svg" width="111" height="179" viewBox="0 0 111 179" fill="none">
  <path d="M32 167c21 5.7 42.3 5.7 64 0" stroke="#1E1E1E" stroke-width="2.8" stroke-linecap="round"/>
  <g stroke="#1E1E1E" stroke-width="2.8" stroke-linecap="round" stroke-linejoin="round">
    <path d="M54.7 126.1C38.5 89.4 38.2 52.7 53.9 16c15.5 35.6 16.1 72.3 1.8 110.1Z" fill="#4DD97C"/>
    <path d="M41.4 124.5C22.4 97.8 14.4 68 17.5 35c21.4 25 31.4 54.8 29.9 89.5Z" fill="#8DF1A9"/>
    <path d="M30.5 130.1C13.2 113.4 4.6 91.1 4.8 63c19.7 19.6 29.1 41.9 28.2 67.1Z" fill="#B8F7C9"/>
    <path d="M65.1 124.4C82.6 100.8 93 73 96.3 41c-22.1 23.3-33.6 51.1-34.3 83.4Z" fill="#3DCC72"/>
    <path d="M76.1 132.5c15.3-16.2 24.1-36.3 26.2-60.4-17.9 13.3-28.7 33.4-32.5 60.3Z" fill="#7EF0A3"/>
    <path d="M54.8 125.6c.1-29 3-58 8.8-87"/>
    <path d="M42 124.3c-3.5-25.4-9.3-48.2-17.5-68.4"/>
    <path d="M31.9 130.1c-6.2-16-13.3-29.9-21.4-41.6"/>
    <path d="M64.3 124.8c8.1-22.4 18.1-42.5 30.1-60.2"/>
    <path d="M74.1 132.3c8.1-14.8 16.6-27 25.5-36.5"/>
    <path d="M22.5 128.4h71.1l-8.4 39.5H31l-8.5-39.5Z" fill="#FFB7B0"/>
    <path d="M17.7 126.6h80.7l-3.7 15.3H21.4l-3.7-15.3Z" fill="#FFD0CC"/>
  </g>
</svg>
