<svg xmlns="http://www.w3.org/2000/svg" width="132" height="120" viewBox="0 0 132 120" fill="none">
  <path d="M19.5 78.5 101 90.5c7 1 12.6 5.8 11.8 10.4-.8 4.8-7.5 7.5-14.8 6.4L16.7 95.5C9.8 94.5 4.7 89.9 5.4 85.4c.7-4.7 7.1-7.8 14.1-6.9Z" fill="#F2D2B1" opacity=".48"/>
  <g stroke="#1E1E1E" stroke-width="2.8" stroke-linecap="round" stroke-linejoin="round">
    <path d="M20.5 73.1 95.2 84.4c9.2 1.4 16.1 7.1 15.1 12.7-.9 5.5-9.2 8.6-18.4 7.2L17.2 93C8 91.6 1.2 86 .2 80.4c.9-5.5 9.1-8.7 18.3-7.3Z" fill="#FF7163"/>
    <path d="M100.3 84.2c-9.1 4.1-12.3 10.9-9.5 20.4" fill="#FFFDF8"/>
    <path d="M15.4 65.2 96.7 76.7c7.6 1.1 13.4 6.1 12.6 11.1-.8 5.1-7.9 8.1-15.7 7L12.3 83.3C4.7 82.2-.9 77.1-.1 72.2c.8-5.1 7.7-8.1 15.5-7Z" fill="#FFB43B"/>
    <path d="M97.3 76.6C89.9 80.4 87 86.4 88.6 94.7" fill="#FFFDF8"/>
    <path d="M18.9 54.4 103 66.2c7.3 1 12.8 5.8 12 10.6-.8 4.8-7.4 7.6-14.9 6.6L16.1 71.6C8.7 70.6 3.4 65.8 4.1 61c.8-4.8 7.4-7.7 14.8-6.6Z" fill="#FFD84D"/>
    <path d="M104.1 66.2c-8.8 3.6-11.8 9.4-9 17.4" fill="#FFFDF8"/>
    <path d="M21.4 53.8 102.8 65.3"/>
    <path d="M17.3 71.1 98.7 82.7"/>
    <path d="M14.1 82.9 95.8 94.5"/>
    <path d="M19.1 94.5 93.5 105.2"/>
    <path d="M32.5 61.8 72.2 67.5"/>
    <path d="M26.9 75.7 71.2 82"/>
    <path d="M24.5 88.6 82.8 96.8"/>
  </g>
  <text x="30" y="68" transform="rotate(8 30 68)" font-family="Kalam, Comic Sans MS, cursive" font-size="16" font-weight="700" fill="#1E1E1E">LEARN</text>
  <text x="26" y="83" transform="rotate(8 26 83)" font-family="Kalam, Comic Sans MS, cursive" font-size="15" font-weight="700" fill="#1E1E1E">CREATE</text>
  <text x="24" y="97" transform="rotate(8 24 97)" font-family="Kalam, Comic Sans MS, cursive" font-size="14" font-weight="700" fill="#1E1E1E">EXPLORE</text>
</svg>
