<svg xmlns="http://www.w3.org/2000/svg" width="395" height="253" viewBox="0 0 395 253" fill="none">
  <ellipse cx="215" cy="222" rx="130" ry="28" fill="#F2D2B1" opacity=".65"/>
  <ellipse cx="87" cy="224" rx="30" ry="8" fill="#F2D2B1" opacity=".65"/>
  <g stroke="#1E1E1E" stroke-width="3.8" stroke-linecap="round" stroke-linejoin="round">
    <path d="M190.5 53.8 293 26.7c7.6-2 15.4 2.5 17.4 10l21.2 80.3c2 7.5-2.5 15.3-10.1 17.3L219 161.4c-7.5 2-15.3-2.5-17.3-10L180.4 71c-2-7.5 2.5-15.2 10.1-17.2Z" fill="#FFD84D"/>
    <path d="M206 74 295.7 50.3" stroke="#FFF4B5" stroke-width="7"/>
    <path d="M148 88.8h149.2c10.4 0 18.8 8.4 18.8 18.8v65.3c0 10.4-8.4 18.8-18.8 18.8H148c-10.4 0-18.8-8.4-18.8-18.8v-65.3c0-10.4 8.4-18.8 18.8-18.8Z" fill="#FF9A91"/>
    <path d="M130 108.6h185" stroke-dasharray="13 12"/>
    <path d="M271.9 126h54.8v43.8h-54.8c-12.1 0-21.9-9.8-21.9-21.9 0-12.1 9.8-21.9 21.9-21.9Z" fill="#FFE9C8"/>
    <circle cx="274.3" cy="147.8" r="9.1" fill="#FFD84D"/>
    <path d="M60 183.8c-12-34.1-10.7-64.6 3.8-91.6 10 29.3 10.4 59.3 1.4 90" fill="#4DD97C"/>
    <path d="M40 188.5C25 169.2 20.3 147.4 26 123.2c14.6 18.2 21.4 39.7 20.3 64.4" fill="#83F0A0"/>
    <path d="M76.2 188.1c8-18 20-30.9 36.1-38.7-1.4 20.3-11.5 35.8-30.4 46.3" fill="#3DCC72"/>
    <path d="M40.4 190h43.2l-5.2 35.2H45.6L40.4 190Z" fill="#FFD84D"/>
    <path d="M35.7 190h52.2"/>
  </g>
  <g stroke="#1E1E1E" stroke-width="3.2" stroke-linecap="round">
    <path d="M143.1 64.6c-6-4.4-10-10.3-11.8-17.9"/>
    <path d="M118.3 91.8c-5.9-1.5-10.8-4.6-14.6-9.5"/>
    <path d="M322.3 62.3c5.9-4.1 10-9.5 12.4-16.2"/>
  </g>
</svg>
